<?xml version="1.0" encoding="utf-8"?>
<!-- Generator: Adobe Illustrator 15.1.0, SVG Export Plug-In . SVG Version: 6.00 Build 0)  -->
<!DOCTYPE svg PUBLIC "-//W3C//DTD SVG 1.1//EN" "http://www.w3.org/Graphics/SVG/1.1/DTD/svg11.dtd">
<svg version="1.1" id="圖層_1" xmlns="http://www.w3.org/2000/svg" xmlns:xlink="http://www.w3.org/1999/xlink" x="0px" y="0px"
	 width="386.341px" height="191.658px" viewBox="0 0 386.341 191.658" enable-background="new 0 0 386.341 191.658"
	 xml:space="preserve">
<path fill="#404C53" d="M183.627,33.376h35.586c13.428,0,24.438,6.003,31.008,17.15c5.004,8.575,5.428,12.434,5.428,33.725
	c0,22.867-1.142,26.873-5.716,34.016c-5.995,9.431-16.575,16.859-31.723,16.859h-34.583V33.376z M199.063,120.551h18.435
	c8.715,0,14.861-2.998,18.863-8.858c3.431-5.141,3.857-8.004,3.857-26.868c0-18.293-0.427-22.721-4.574-28.295
	c-4.716-6.438-9.859-8.575-18.146-8.575h-18.435V120.551z"/>
<path fill="#404C53" d="M329.323,112.405h-38.591l-7.858,22.721h-16.297l37.022-101.751h12.861l37.015,101.751h-16.292
	L329.323,112.405z M324.889,98.688l-14.714-44.452h-0.29l-14.721,44.452H324.889z"/>
<path fill="#404C53" d="M287.9,158.527h-4.18l-0.854,2.465h-1.765l4.015-11.03h1.395l4.011,11.03h-1.767L287.9,158.527z
	 M287.419,157.042l-1.592-4.82h-0.029l-1.599,4.82H287.419z"/>
<path fill="#404C53" d="M229.737,149.95l-2.88,11.053h-1.722l-2.84-8.52l-2.82,8.52h-1.712l-2.909-11.053h1.939l2.029,8.56
	l2.76-8.56h1.534l2.83,8.56l1.92-8.56H229.737z"/>
<rect x="27.892" y="33.376" fill="#404C53" width="15.43" height="101.75"/>
<rect x="157.944" y="149.963" fill="#404C53" width="1.674" height="11.03"/>
<path fill="#404C53" d="M97.354,158.531h-4.18l-0.854,2.465h-1.765l4.015-11.03h1.395l4.011,11.03h-1.767L97.354,158.531z
	 M96.874,157.046l-1.592-4.82h-0.029l-1.599,4.82H96.874z"/>
<polygon fill="#404C53" points="30.909,151.456 27.892,151.456 27.892,149.968 35.607,149.968 35.607,151.456 32.583,151.456 
	32.583,160.999 30.909,160.999 "/>
<polygon fill="#404C53" points="345.195,149.97 346.765,149.97 351.758,157.807 351.79,157.807 351.79,149.97 353.458,149.97 
	353.458,161 351.885,161 346.894,153.166 346.86,153.166 346.86,161 345.195,161 "/>
<path fill="#47B8B6" d="M115.223,53.721c-0.88,0.878-2.318,0.878-3.197,0l-9.17-9.172c-0.88-0.878-0.88-2.317,0-3.197l9.17-9.169
	c0.879-0.877,2.317-0.877,3.197,0l9.171,9.169c0.879,0.879,0.879,2.318,0,3.197L115.223,53.721z"/>
<path fill="#47B8B6" d="M142.38,132.913v-11.817c0-1.223,1.001-2.224,2.225-2.224h11.813c0.916,0,1.707,0.563,2.047,1.36
	c-0.106-0.261-0.255-0.52-0.516-0.778l-27.728-27.737c-0.877-0.879-0.877-2.317,0-3.197l27.515-27.528
	c0.069-0.069,0.103-0.145,0.163-0.218c-0.396,0.359-0.906,0.592-1.479,0.592h-11.815c-1.224,0-2.225-1.001-2.225-2.222v-11.82
	c0-0.586,0.24-1.116,0.615-1.514c-0.042,0.039-0.088,0.053-0.13,0.098l-27.648,27.608c-0.877,0.878-2.317,0.878-3.196,0
	L84.362,45.925c-0.023-0.025-0.052-0.033-0.075-0.057c0.347,0.394,0.574,0.894,0.577,1.454l0.001,11.82
	c0.001,1.22-1,2.222-2.222,2.222H70.827c-0.579,0-1.099-0.236-1.496-0.601c0.02,0.018,0.025,0.039,0.044,0.058l27.643,27.697
	c0.879,0.88,0.879,2.318,0,3.197l-27.699,27.702c-0.258,0.258-0.409,0.517-0.52,0.783c0.348-0.778,1.124-1.329,2.028-1.329h11.812
	c1.224,0,2.223,1.001,2.226,2.224l0.001,11.817c0.001,0.61-0.249,1.165-0.65,1.567c0.037-0.035,0.078-0.046,0.117-0.085
	l27.689-27.673c0.879-0.878,2.319-0.878,3.196,0l27.719,27.708c0.262,0.262,0.521,0.411,0.788,0.52
	C142.936,134.605,142.38,133.821,142.38,132.913"/>
<path fill="#404C53" d="M82.638,45.1H70.827c-1.224,0-2.226,1.001-2.226,2.222v11.82c0,1.22,1.002,2.222,2.226,2.222h11.816
	c1.222,0,2.223-1.002,2.222-2.222l-0.002-11.82C84.861,46.102,83.862,45.1,82.638,45.1"/>
<path fill="#404C53" d="M156.418,45.1h-11.812c-1.225,0-2.227,1.001-2.227,2.222v11.82c0,1.22,1.002,2.222,2.227,2.222h11.815
	c1.225,0,2.223-1.002,2.223-2.222v-11.82C158.638,46.102,157.64,45.1,156.418,45.1"/>
<path fill="#404C53" d="M82.638,118.871H70.827c-1.224,0-2.226,1.002-2.226,2.224v11.817c0,1.221,1.002,2.225,2.226,2.225h11.816
	c1.222,0,2.223-1.004,2.222-2.225l-0.002-11.817C84.861,119.874,83.862,118.871,82.638,118.871"/>
<path fill="#404C53" d="M156.418,118.871h-11.812c-1.225,0-2.227,1.002-2.227,2.224v11.817c0,1.221,1.002,2.225,2.227,2.225h11.815
	c1.225,0,2.223-1.004,2.223-2.225v-11.817C158.638,119.874,157.64,118.871,156.418,118.871"/>
<rect x="27.892" y="31.568" fill="none" width="325.558" height="129.499"/>
</svg>
