<?xml version="1.0" encoding="utf-8"?>
<!-- Generator: Adobe Illustrator 15.1.0, SVG Export Plug-In . SVG Version: 6.00 Build 0)  -->
<!DOCTYPE svg PUBLIC "-//W3C//DTD SVG 1.1//EN" "http://www.w3.org/Graphics/SVG/1.1/DTD/svg11.dtd">
<svg version="1.1" id="圖層_2" xmlns="http://www.w3.org/2000/svg" xmlns:xlink="http://www.w3.org/1999/xlink" x="0px" y="0px"
	 width="158.17px" height="99.347px" viewBox="0 0 158.17 99.347" enable-background="new 0 0 158.17 99.347" xml:space="preserve">
<g>
	<path fill="#FFFFFF" d="M18.388,73.882h2.07v2.28h-2.07v9.845h-3.193v-9.845h-1.702v-2.28h1.702v-0.979
		c0-1.187,0.308-2.062,0.923-2.625c0.616-0.563,1.603-0.845,2.959-0.845c0.364,0,0.801,0.018,1.312,0.056v2.603
		c-0.229-0.022-0.471-0.033-0.723-0.033c-0.304,0-0.542,0.021-0.711,0.061c-0.171,0.041-0.297,0.111-0.379,0.212
		c-0.081,0.1-0.134,0.237-0.156,0.411c-0.021,0.175-0.033,0.399-0.033,0.674V73.882z"/>
	<path fill="#FFFFFF" d="M41.25,83.638c0,0.556,0.051,0.992,0.155,1.307c0.104,0.315,0.286,0.511,0.545,0.584v0.479h-3.415
		c-0.148-0.407-0.252-0.887-0.312-1.436c-1.039,1.173-2.388,1.758-4.049,1.758c-1.15,0-2.076-0.318-2.776-0.956
		c-0.701-0.637-1.051-1.498-1.051-2.581c0-1.039,0.306-1.895,0.917-2.569c0.613-0.675,1.526-1.102,2.743-1.279l2.981-0.434
		c0.408-0.06,0.7-0.174,0.878-0.34c0.179-0.166,0.268-0.38,0.268-0.639c0-0.469-0.171-0.822-0.512-1.063
		c-0.342-0.24-0.864-0.361-1.568-0.361c-0.735,0-1.271,0.133-1.608,0.401c-0.337,0.266-0.546,0.699-0.628,1.3h-3.081
		c0.155-1.475,0.658-2.551,1.508-3.225c0.849-0.675,2.205-1.013,4.065-1.013c1.498,0,2.696,0.301,3.594,0.901
		c0.897,0.601,1.346,1.469,1.346,2.603V83.638z M38.136,80.133c-0.394,0.274-1.157,0.493-2.292,0.657
		c-0.949,0.134-1.57,0.346-1.863,0.639c-0.293,0.294-0.439,0.681-0.439,1.163s0.156,0.846,0.467,1.091s0.683,0.367,1.113,0.367
		c0.816,0,1.522-0.229,2.118-0.686c0.598-0.455,0.896-1.024,0.896-1.707V80.133z"/>
	<path fill="#FFFFFF" d="M62.513,86.007h-3.192v-7.531c0-0.704-0.159-1.251-0.479-1.642c-0.319-0.388-0.849-0.583-1.591-0.583
		c-0.764,0-1.372,0.25-1.824,0.751c-0.453,0.5-0.678,1.185-0.678,2.052v6.953h-3.193V73.882h3.059v1.779h0.044
		c0.764-1.395,1.969-2.091,3.616-2.091c1.238,0,2.254,0.354,3.047,1.062c0.794,0.708,1.19,1.703,1.19,2.986V86.007z"/>
	<path fill="#FFFFFF" d="M76.808,83.382h6.352v2.625H72.68v-2.48l6.219-7.086h-5.785v-2.559h9.822v2.626L76.808,83.382z"/>
	<path fill="#FFFFFF" d="M100.662,85.807c-0.601,1.721-1.053,2.866-1.356,3.438c-0.305,0.57-0.676,0.987-1.113,1.25
		c-0.438,0.264-1.176,0.396-2.213,0.396c-0.534,0-1.017-0.026-1.447-0.077v-2.525c0.229,0.028,0.52,0.044,0.868,0.044
		c0.46,0,0.837-0.097,1.129-0.289c0.293-0.193,0.539-0.697,0.74-1.514l-4.494-12.647h3.56l2.592,8.933h0.057l2.479-8.933h3.371
		L100.662,85.807z"/>
	<path fill="#FFFFFF" d="M122.205,73.882h1.979v2.28h-1.979v6.798c0,0.318,0.088,0.525,0.262,0.622s0.443,0.145,0.806,0.145
		c0.363,0,0.668-0.015,0.912-0.044v2.369c-0.466,0.074-1.042,0.111-1.724,0.111c-1.261,0-2.15-0.19-2.67-0.573
		c-0.52-0.382-0.778-1.069-0.778-2.063v-7.364h-1.646v-2.28h1.646v-3.271h3.192V73.882z"/>
	<path fill="#FFFFFF" d="M142.238,86.007h-3.35l-4.349-12.125h3.549l2.502,8.933h0.045l2.581-8.933h3.393L142.238,86.007z"/>
</g>
<g>
	<circle fill="#FFFFFF" cx="77.92" cy="38.632" r="25.414"/>
	<g>
		<path fill="#66BF97" d="M90.45,27.823H65.388c-1.412,0-2.558,1.145-2.558,2.558v15.685c0,1.413,1.146,2.558,2.558,2.558H90.45
			c1.412,0,2.557-1.145,2.557-2.558V30.381C93.007,28.968,91.862,27.823,90.45,27.823z M89.653,31.717v11.009
			c0,1.447-1.173,2.621-2.621,2.621H67.636h-1.451v-0.617V33.722c0-1.449,1.174-2.621,2.621-2.621h19.396h1.451V31.717z"/>
		<path fill="#315C97" d="M84.199,48.623h5.454l-0.01,2.616c0.012,0.08,0.012,0.16,0.004,0.238v0.004h-0.002
			c-0.033,0.26-0.174,0.49-0.342,0.574c-0.168,0.086-0.437,0.062-0.665-0.065v0.001l-0.005-0.004
			c-0.068-0.038-0.132-0.086-0.188-0.143L84.199,48.623z"/>
		<path fill="#3AA584" d="M71.64,48.623h-5.455l0.01,2.616c-0.012,0.08-0.012,0.16-0.003,0.238v0.004h0.001
			c0.033,0.26,0.174,0.49,0.342,0.574c0.168,0.086,0.438,0.062,0.665-0.065l0.001,0.001l0.004-0.004
			c0.068-0.038,0.132-0.086,0.188-0.143L71.64,48.623z"/>
		<path fill="#4774B9" d="M90.388,31.101h-0.734v0.616v11.009c0,1.447-1.173,2.621-2.621,2.621H67.636h-1.451v0.656v2.62h2.621
			h2.214h19.397c1.417,0,2.59-1.173,2.59-2.62v-11.01v-1.271v-2.621H90.388z"/>
	</g>
</g>
</svg>
