<?xml version="1.0" encoding="utf-8"?>
<!-- Generator: Adobe Illustrator 15.1.0, SVG Export Plug-In . SVG Version: 6.00 Build 0)  -->
<!DOCTYPE svg PUBLIC "-//W3C//DTD SVG 1.1//EN" "http://www.w3.org/Graphics/SVG/1.1/DTD/svg11.dtd">
<svg version="1.1" id="圖層_2" xmlns="http://www.w3.org/2000/svg" xmlns:xlink="http://www.w3.org/1999/xlink" x="0px" y="0px"
	 width="371.604px" height="360px" viewBox="0 0 371.604 360" enable-background="new 0 0 371.604 360" xml:space="preserve">
<g>
	
		<circle opacity="0.3" fill="none" stroke="#FFFFFF" stroke-miterlimit="10" enable-background="new    " cx="186.374" cy="181.979" r="111"/>
	<g opacity="0.3">
		<line fill="none" stroke="#FFFFFF" stroke-miterlimit="10" x1="186.374" y1="13.646" x2="186.374" y2="53.646"/>
		<line fill="none" stroke="#FFFFFF" stroke-miterlimit="10" x1="186.374" y1="310.312" x2="186.374" y2="350.312"/>
	</g>
	<g opacity="0.3">
		<line fill="none" stroke="#FFFFFF" stroke-miterlimit="10" x1="354.707" y1="181.979" x2="314.707" y2="181.979"/>
		<line fill="none" stroke="#FFFFFF" stroke-miterlimit="10" x1="58.041" y1="181.979" x2="18.041" y2="181.979"/>
	</g>
	<g opacity="0.3">
		<g>
			<line fill="none" stroke="#FFFFFF" stroke-miterlimit="10" x1="323.415" y1="125.215" x2="304.938" y2="132.868"/>
		</g>
		<g>
			<line fill="none" stroke="#FFFFFF" stroke-miterlimit="10" x1="67.809" y1="231.091" x2="49.332" y2="238.744"/>
		</g>
	</g>
	<g opacity="0.3">
		<g>
			<line fill="none" stroke="#FFFFFF" stroke-miterlimit="10" x1="243.138" y1="44.938" x2="235.484" y2="63.415"/>
		</g>
		<g>
			<line fill="none" stroke="#FFFFFF" stroke-miterlimit="10" x1="137.262" y1="300.544" x2="129.609" y2="319.021"/>
		</g>
	</g>
	<g opacity="0.3">
		<g>
			<line fill="none" stroke="#FFFFFF" stroke-miterlimit="10" x1="129.609" y1="44.938" x2="137.262" y2="63.415"/>
		</g>
		<g>
			<line fill="none" stroke="#FFFFFF" stroke-miterlimit="10" x1="235.485" y1="300.544" x2="243.138" y2="319.021"/>
		</g>
	</g>
	<g opacity="0.3">
		<g>
			<line fill="none" stroke="#FFFFFF" stroke-miterlimit="10" x1="49.332" y1="125.215" x2="67.809" y2="132.869"/>
		</g>
		<g>
			<line fill="none" stroke="#FFFFFF" stroke-miterlimit="10" x1="304.938" y1="231.09" x2="323.415" y2="238.744"/>
		</g>
	</g>
	<g opacity="0.3">
		<g>
			<line fill="none" stroke="#FFFFFF" stroke-miterlimit="10" x1="90.767" y1="86.373" x2="96.954" y2="92.56"/>
		</g>
		<g>
			<line fill="none" stroke="#FFFFFF" stroke-miterlimit="10" x1="275.793" y1="271.398" x2="281.98" y2="277.586"/>
		</g>
	</g>
	<g opacity="0.3">
		<g>
			<line fill="none" stroke="#FFFFFF" stroke-miterlimit="10" x1="281.98" y1="86.373" x2="275.793" y2="92.56"/>
		</g>
		<g>
			<line fill="none" stroke="#FFFFFF" stroke-miterlimit="10" x1="96.954" y1="271.398" x2="90.767" y2="277.586"/>
		</g>
	</g>
</g>
<g>
	<path fill="none" stroke="#FFFFFF" stroke-width="1.5" stroke-miterlimit="10" d="M258.098,154.844h-3.315h-6.564h-87.721
		c-6.546,0-11.854,5.307-11.854,11.854v49.788v2.791v2.964v11.854h11.854h10.015h59.602l19.205,14.57
		c0.259,0.256,0.545,0.471,0.853,0.645l0.02,0.015l0.002-0.001c1.029,0.574,2.246,0.681,3.009,0.298
		c0.764-0.386,1.397-1.427,1.549-2.595l0.004-0.004v-0.018c0.043-0.354,0.043-0.716-0.014-1.078l0.045-11.833h3.45
		c6.41,0,11.72-5.307,11.72-11.854v-49.788v-5.755v-11.854L258.098,154.844L258.098,154.844z"/>
	<path opacity="0.5" fill="none" stroke="#FFFFFF" stroke-miterlimit="10" enable-background="new    " d="M259.967,149.851v-11.882
		c0-7.044-5.711-12.754-12.756-12.754H122.218c-7.044,0-12.756,5.71-12.756,12.754v78.229c0,7.045,5.712,12.754,12.756,12.754h3.974
		l0.048,13.049c-0.061,0.399-0.061,0.8-0.014,1.188v0.02l0.005,0.003c0.165,1.29,0.866,2.437,1.708,2.861
		c0.84,0.423,2.181,0.305,3.316-0.329l0.004,0.001l0.019-0.017c0.341-0.189,0.657-0.427,0.94-0.709l10.786-8.184"/>
</g>
</svg>
