<?xml version="1.0" encoding="utf-8"?>
<!-- Generator: Adobe Illustrator 15.1.0, SVG Export Plug-In . SVG Version: 6.00 Build 0)  -->
<!DOCTYPE svg PUBLIC "-//W3C//DTD SVG 1.1//EN" "http://www.w3.org/Graphics/SVG/1.1/DTD/svg11.dtd">
<svg version="1.1" xmlns="http://www.w3.org/2000/svg" xmlns:xlink="http://www.w3.org/1999/xlink" x="0px" y="0px" width="816px"
	 height="170px" viewBox="0 0 816 170" enable-background="new 0 0 816 170" xml:space="preserve">
<g id="圖層_3" display="none">
	<path display="inline" fill="#4774B9" d="M50.957,59.445h11.988v13.213H50.957v57.041H32.458V72.658h-9.861V59.445h9.861v-5.672
		c0-6.875,1.783-11.945,5.35-15.211c3.566-3.266,9.281-4.898,17.145-4.898c2.105,0,4.641,0.107,7.605,0.322v15.082
		c-1.333-0.129-2.729-0.193-4.189-0.193c-1.762,0-3.137,0.119-4.125,0.354c-0.989,0.238-1.719,0.645-2.191,1.225
		c-0.473,0.58-0.773,1.377-0.902,2.385c-0.129,1.012-0.193,2.311-0.193,3.9V59.445z"/>
	<path display="inline" fill="#4774B9" d="M183.42,115.971c0,3.223,0.3,5.748,0.902,7.572c0.601,1.828,1.654,2.955,3.158,3.385
		v2.771h-19.787c-0.86-2.363-1.461-5.135-1.805-8.314c-6.016,6.789-13.836,10.184-23.461,10.184c-6.661,0-12.021-1.848-16.081-5.543
		s-6.091-8.68-6.091-14.953c0-6.016,1.772-10.979,5.317-14.889s8.84-6.381,15.888-7.412l17.273-2.514
		c2.363-0.344,4.061-1,5.092-1.967s1.547-2.201,1.547-3.705c0-2.707-0.989-4.758-2.965-6.156c-1.977-1.395-5.006-2.094-9.088-2.094
		c-4.254,0-7.359,0.773-9.313,2.32c-1.956,1.547-3.169,4.061-3.642,7.541h-17.854c0.902-8.551,3.813-14.781,8.733-18.691
		c4.919-3.91,12.772-5.865,23.558-5.865c8.679,0,15.619,1.74,20.818,5.221c5.199,3.48,7.799,8.508,7.799,15.082V115.971z
		 M165.373,95.668c-2.278,1.59-6.703,2.857-13.277,3.803c-5.5,0.773-9.099,2.01-10.796,3.705c-1.698,1.699-2.546,3.943-2.546,6.736
		s0.902,4.898,2.707,6.316s3.953,2.127,6.445,2.127c4.726,0,8.819-1.322,12.278-3.965c3.458-2.643,5.188-5.939,5.188-9.893V95.668z"
		/>
	<path display="inline" fill="#4774B9" d="M306.618,129.699H288.12V86.064c0-4.082-0.924-7.252-2.771-9.508
		c-1.848-2.256-4.92-3.383-9.217-3.383c-4.426,0-7.95,1.449-10.57,4.35c-2.622,2.9-3.932,6.865-3.932,11.893v40.283h-18.498V59.445
		h17.725v10.312h0.258c4.425-8.078,11.408-12.117,20.947-12.117c7.175,0,13.062,2.053,17.66,6.154
		c4.597,4.105,6.896,9.873,6.896,17.307V129.699z"/>
	<path display="inline" fill="#4774B9" d="M389.436,114.488h36.804v15.211h-60.716v-14.373l36.03-41.057h-33.517V59.445h56.913
		v15.211L389.436,114.488z"/>
	<path display="inline" fill="#4774B9" d="M527.651,128.539c-3.48,9.967-6.102,16.605-7.863,19.916
		c-1.763,3.309-3.91,5.725-6.445,7.25c-2.536,1.525-6.811,2.289-12.826,2.289c-3.094,0-5.888-0.152-8.379-0.451v-14.631
		c1.331,0.17,3.007,0.258,5.027,0.258c2.664,0,4.844-0.559,6.542-1.676c1.697-1.119,3.126-4.039,4.286-8.766l-26.039-73.283h20.625
		l15.018,51.756h0.322l14.373-51.756h19.529L527.651,128.539z"/>
	<path display="inline" fill="#66BF97" d="M652.468,59.445h11.473v13.213h-11.473v39.381c0,1.848,0.505,3.051,1.515,3.609
		c1.009,0.559,2.567,0.838,4.673,0.838c2.104,0,3.867-0.086,5.285-0.258v13.729c-2.707,0.43-6.037,0.645-9.99,0.645
		c-7.306,0-12.462-1.105-15.469-3.32c-3.008-2.211-4.512-6.197-4.512-11.955V72.658h-9.539V59.445h9.539V40.496h18.498V59.445z"/>
	<path display="inline" fill="#66BF97" d="M768.537,129.699h-19.4l-25.201-70.254h20.561l14.502,51.756h0.258l14.953-51.756h19.658
		L768.537,129.699z"/>
</g>
<g id="圖層_2">
	<g>
		<path fill="#4774B9" d="M50.725,48.616h11.988v13.213H50.725v57.041H32.227V61.829h-9.861V48.616h9.861v-5.672
			c0-6.875,1.782-11.945,5.35-15.211c3.565-3.266,9.281-4.898,17.145-4.898c2.104,0,4.641,0.107,7.605,0.322v15.082
			c-1.333-0.129-2.729-0.193-4.189-0.193c-1.763,0-3.138,0.119-4.125,0.354c-0.989,0.238-1.72,0.645-2.191,1.225
			c-0.474,0.58-0.773,1.377-0.902,2.385c-0.129,1.012-0.193,2.311-0.193,3.9V48.616z"/>
		<path fill="#4774B9" d="M183.188,105.142c0,3.223,0.301,5.748,0.902,7.572c0.602,1.828,1.654,2.955,3.158,3.385v2.771h-19.787
			c-0.859-2.363-1.461-5.135-1.805-8.314c-6.016,6.789-13.836,10.184-23.461,10.184c-6.66,0-12.021-1.848-16.081-5.543
			s-6.091-8.68-6.091-14.953c0-6.016,1.772-10.979,5.317-14.889s8.841-6.381,15.888-7.412l17.273-2.514
			c2.363-0.344,4.061-1,5.092-1.967s1.547-2.201,1.547-3.705c0-2.707-0.988-4.758-2.965-6.156c-1.977-1.395-5.006-2.094-9.088-2.094
			c-4.254,0-7.358,0.773-9.313,2.32s-3.169,4.061-3.642,7.541h-17.854c0.902-8.551,3.813-14.781,8.733-18.691
			s12.772-5.865,23.558-5.865c8.68,0,15.619,1.74,20.818,5.221s7.799,8.508,7.799,15.082V105.142z M165.141,84.839
			c-2.277,1.59-6.703,2.857-13.277,3.803c-5.5,0.773-9.099,2.01-10.796,3.705c-1.697,1.699-2.546,3.943-2.546,6.736
			s0.902,4.898,2.707,6.316s3.953,2.127,6.445,2.127c4.727,0,8.819-1.322,12.278-3.965s5.188-5.939,5.188-9.893V84.839z"/>
		<path fill="#4774B9" d="M306.386,118.87h-18.498V75.235c0-4.082-0.925-7.252-2.771-9.508c-1.849-2.256-4.921-3.383-9.217-3.383
			c-4.427,0-7.95,1.449-10.57,4.35c-2.622,2.9-3.932,6.865-3.932,11.893v40.283h-18.498V48.616h17.725v10.312h0.258
			c4.425-8.078,11.408-12.117,20.947-12.117c7.175,0,13.062,2.053,17.66,6.154c4.597,4.105,6.896,9.873,6.896,17.307V118.87z"/>
		<path fill="#4774B9" d="M389.203,103.659h36.804v15.211h-60.716v-14.373l36.03-41.057h-33.517V48.616h56.913v15.211
			L389.203,103.659z"/>
		<path fill="#4774B9" d="M527.419,117.71c-3.48,9.967-6.102,16.605-7.863,19.916c-1.763,3.309-3.91,5.725-6.445,7.25
			c-2.536,1.525-6.811,2.289-12.826,2.289c-3.094,0-5.888-0.152-8.379-0.451v-14.631c1.331,0.17,3.007,0.258,5.027,0.258
			c2.664,0,4.844-0.559,6.542-1.676c1.697-1.119,3.126-4.039,4.286-8.766l-26.039-73.283h20.625l15.018,51.756h0.322l14.373-51.756
			h19.529L527.419,117.71z"/>
		<path fill="#66BF97" d="M652.235,48.616h11.473v13.213h-11.473v39.381c0,1.848,0.505,3.051,1.515,3.609
			c1.009,0.559,2.567,0.838,4.673,0.838c2.104,0,3.867-0.086,5.285-0.258v13.729c-2.707,0.43-6.037,0.645-9.99,0.645
			c-7.306,0-12.462-1.105-15.469-3.32c-3.008-2.211-4.512-6.197-4.512-11.955V61.829h-9.539V48.616h9.539V29.667h18.498V48.616z"/>
		<path fill="#66BF97" d="M768.305,118.87h-19.4l-25.201-70.254h20.561l14.502,51.756h0.258l14.953-51.756h19.658L768.305,118.87z"
			/>
	</g>
</g>
</svg>
